<svg id="Layer_2" data-name="Layer 2" xmlns="http://www.w3.org/2000/svg" viewBox="0 0 128 96"><defs><style>.cls-1{fill:#007bff;}</style></defs><title>Artboard 1</title><path class="cls-1" d="M3.83,22.34a1,1,0,0,1,.41.09,1.11,1.11,0,0,1,.34.22A1.11,1.11,0,0,1,4.8,23a1,1,0,0,1,.08.42,1,1,0,0,1-.08.41,1.19,1.19,0,0,1-.22.33,1.11,1.11,0,0,1-.34.22,1,1,0,0,1-.41.09.91.91,0,0,1-.41-.09,1.11,1.11,0,0,1-.34-.22,1.19,1.19,0,0,1-.22-.33,1,1,0,0,1-.08-.41A1,1,0,0,1,2.86,23a1.11,1.11,0,0,1,.22-.34,1.11,1.11,0,0,1,.34-.22A.91.91,0,0,1,3.83,22.34Z"/><path class="cls-1" d="M8.15,21.29a4.27,4.27,0,0,1,.22-1.44A3,3,0,0,1,9,18.78a2.65,2.65,0,0,1,1-.66,3.51,3.51,0,0,1,1.28-.23,5.66,5.66,0,0,1,.6,0,5.41,5.41,0,0,1,.58.12V15.37h1.12v9h-1l0-1.2a3.25,3.25,0,0,1-1,1,2.19,2.19,0,0,1-1.16.33,1.88,1.88,0,0,1-1.66-.88,3,3,0,0,1-.41-1A5.15,5.15,0,0,1,8.15,21.29Zm1.13-.07a3.39,3.39,0,0,0,.34,1.72,1,1,0,0,0,1,.57,1.42,1.42,0,0,0,.88-.37,5.33,5.33,0,0,0,1-1.11v-3a2.64,2.64,0,0,0-.6-.2,3.66,3.66,0,0,0-.65-.06,1.77,1.77,0,0,0-1.41.58A2.8,2.8,0,0,0,9.28,21.22Z"/><path class="cls-1" d="M19.71,24.34l0-.85a3.47,3.47,0,0,1-1.06.74,2.89,2.89,0,0,1-1.13.23,2.84,2.84,0,0,1-.93-.14,1.77,1.77,0,0,1-.64-.39,1.56,1.56,0,0,1-.37-.57,2.36,2.36,0,0,1-.11-.72,1.76,1.76,0,0,1,.71-1.5,3.47,3.47,0,0,1,2.11-.54h1.32V20a1.2,1.2,0,0,0-.36-.91,1.59,1.59,0,0,0-1.1-.34,4.29,4.29,0,0,0-1.07.13,7,7,0,0,0-1.08.34v-1l.47-.15L17,18a5.4,5.4,0,0,1,.6-.09c.2,0,.41,0,.62,0a4.21,4.21,0,0,1,1.05.12,2.29,2.29,0,0,1,.78.39,1.67,1.67,0,0,1,.49.65,2.24,2.24,0,0,1,.17.93v4.39Zm-.12-2.9h-1.4a2.9,2.9,0,0,0-.71.08,1.49,1.49,0,0,0-.49.24.88.88,0,0,0-.28.36,1.29,1.29,0,0,0-.1.48,1.09,1.09,0,0,0,.06.36.7.7,0,0,0,.19.29.78.78,0,0,0,.33.21,1.4,1.4,0,0,0,.49.08,2,2,0,0,0,.87-.24,3.89,3.89,0,0,0,1-.73Z"/><path class="cls-1" d="M27.9,24.25a5,5,0,0,1-.77.14,7.38,7.38,0,0,1-.82,0,2.59,2.59,0,0,1-1.79-.54,2.18,2.18,0,0,1-.59-1.67V18.9H22.15V18h1.78V16.22L25,15.93v2H27.9v.93H25v3.23a1.36,1.36,0,0,0,.36,1,1.52,1.52,0,0,0,1.08.34,5.73,5.73,0,0,0,.67-.05,5.53,5.53,0,0,0,.75-.15Z"/><path class="cls-1" d="M34,24.34l0-.85a3.47,3.47,0,0,1-1.06.74,2.84,2.84,0,0,1-1.12.23,2.76,2.76,0,0,1-.93-.14,1.69,1.69,0,0,1-.64-.39,1.44,1.44,0,0,1-.37-.57,2.09,2.09,0,0,1-.12-.72,1.77,1.77,0,0,1,.72-1.5,3.45,3.45,0,0,1,2.11-.54h1.32V20a1.17,1.17,0,0,0-.37-.91,1.57,1.57,0,0,0-1.1-.34,4.22,4.22,0,0,0-1.06.13,7.51,7.51,0,0,0-1.09.34v-1l.47-.15.54-.13a5.4,5.4,0,0,1,.6-.09q.32,0,.63,0a4.18,4.18,0,0,1,1,.12,2.2,2.2,0,0,1,.78.39,1.7,1.7,0,0,1,.5.65A2.41,2.41,0,0,1,35,20v4.39Zm-.12-2.9H32.48a3,3,0,0,0-.71.08,1.49,1.49,0,0,0-.49.24,1,1,0,0,0-.28.36,1.28,1.28,0,0,0-.09.48A1.09,1.09,0,0,0,31,23a.68.68,0,0,0,.18.29.93.93,0,0,0,.33.21,1.46,1.46,0,0,0,.5.08,2,2,0,0,0,.87-.24,4.06,4.06,0,0,0,1-.73Z"/><path class="cls-1" d="M5.42,53.34l0-.85a3.47,3.47,0,0,1-1.06.74,2.84,2.84,0,0,1-1.12.23,2.76,2.76,0,0,1-.93-.14,1.69,1.69,0,0,1-.64-.39,1.44,1.44,0,0,1-.37-.57,2.09,2.09,0,0,1-.12-.72,1.77,1.77,0,0,1,.72-1.5A3.45,3.45,0,0,1,4,49.6H5.3V49a1.2,1.2,0,0,0-.36-.91,1.62,1.62,0,0,0-1.11-.34,4.22,4.22,0,0,0-1.06.13,7,7,0,0,0-1.08.34v-1l.46-.15L2.69,47a5.4,5.4,0,0,1,.6-.09q.31,0,.63,0A4.18,4.18,0,0,1,5,47a2.2,2.2,0,0,1,.78.39,1.7,1.7,0,0,1,.5.65,2.41,2.41,0,0,1,.17.93v4.39Zm-.12-2.9H3.89a3,3,0,0,0-.71.08,1.49,1.49,0,0,0-.49.24,1,1,0,0,0-.28.36,1.28,1.28,0,0,0-.09.48,1.09,1.09,0,0,0,.06.36.79.79,0,0,0,.18.29.93.93,0,0,0,.33.21,1.46,1.46,0,0,0,.5.08,2,2,0,0,0,.87-.24,4.06,4.06,0,0,0,1-.73Z"/><path class="cls-1" d="M8.73,47h1l0,1.17a4.07,4.07,0,0,1,1.12-1,2.25,2.25,0,0,1,1.1-.3,1.83,1.83,0,0,1,1.51.64A2.88,2.88,0,0,1,14,49.4H12.85a2.13,2.13,0,0,0-.24-1.21.88.88,0,0,0-.78-.38,1.17,1.17,0,0,0-.44.08,1.66,1.66,0,0,0-.47.25,6.12,6.12,0,0,0-.5.45,6.8,6.8,0,0,0-.57.66v4.09H8.73Z"/><path class="cls-1" d="M15.88,47h1l0,1.17a4.19,4.19,0,0,1,1.11-1,2.32,2.32,0,0,1,1.11-.3,1.79,1.79,0,0,1,1.5.64,2.88,2.88,0,0,1,.48,1.9H20a2,2,0,0,0-.25-1.21.85.85,0,0,0-.77-.38,1.14,1.14,0,0,0-.44.08,1.54,1.54,0,0,0-.47.25,4,4,0,0,0-.5.45,6.8,6.8,0,0,0-.57.66v4.09H15.88Z"/><path class="cls-1" d="M25.32,46.86a1,1,0,0,1,.38.07,1.16,1.16,0,0,1,.31.22,1,1,0,0,1,.29.68,1,1,0,0,1-.08.38.95.95,0,0,1-.9.59.9.9,0,0,1-.37-.07,1,1,0,0,1-.52-.52,1,1,0,0,1-.08-.38,1,1,0,0,1,.29-.68,1.16,1.16,0,0,1,.31-.22A.9.9,0,0,1,25.32,46.86Zm0,4.65a1,1,0,0,1,.38.08,1,1,0,0,1,.52.52,1,1,0,0,1,.08.38.91.91,0,0,1-.08.37,1,1,0,0,1-.52.52,1,1,0,0,1-.38.08.91.91,0,0,1-.37-.08,1,1,0,0,1-.52-.52.91.91,0,0,1-.08-.37,1,1,0,0,1,.08-.38,1,1,0,0,1,.52-.52A.91.91,0,0,1,25.32,51.51Z"/><path class="cls-1" d="M39.57,51.34a1,1,0,0,1,.41.09,1,1,0,0,1,.33.22,1.27,1.27,0,0,1,.23.34,1.16,1.16,0,0,1,.08.42,1.15,1.15,0,0,1-.08.41,1.23,1.23,0,0,1-.23.33,1,1,0,0,1-.74.31,1.07,1.07,0,0,1-.41-.08,1.36,1.36,0,0,1-.34-.23,1.19,1.19,0,0,1-.22-.33,1,1,0,0,1-.09-.41A1,1,0,0,1,38.6,52a1.24,1.24,0,0,1,.22-.34,1.11,1.11,0,0,1,.34-.22A.91.91,0,0,1,39.57,51.34Z"/><path class="cls-1" d="M49.25,51.6a1.48,1.48,0,0,1-.11.61,1.82,1.82,0,0,1-.31.47,1.8,1.8,0,0,1-.46.35,2.7,2.7,0,0,1-.55.24,3.18,3.18,0,0,1-.61.14,4.3,4.3,0,0,1-.61.05,10.87,10.87,0,0,1-1.19-.06,9,9,0,0,1-1.06-.18v-1a7.34,7.34,0,0,0,1.11.24,6.79,6.79,0,0,0,1.1.08,2.49,2.49,0,0,0,1.17-.21.67.67,0,0,0,.38-.62.81.81,0,0,0-.06-.31.73.73,0,0,0-.22-.26,2.17,2.17,0,0,0-.49-.25c-.22-.09-.53-.19-.91-.31a5.77,5.77,0,0,1-.8-.29,2.46,2.46,0,0,1-.63-.38,1.61,1.61,0,0,1-.42-.52,1.55,1.55,0,0,1-.15-.71A1.57,1.57,0,0,1,45,47.49a2.24,2.24,0,0,1,.8-.45,3.84,3.84,0,0,1,1.27-.18c.25,0,.53,0,.83,0a6.61,6.61,0,0,1,.95.14v1a9.75,9.75,0,0,0-1-.18,6.44,6.44,0,0,0-.81-.06,3.44,3.44,0,0,0-.7.06,1.46,1.46,0,0,0-.45.17.68.68,0,0,0-.25.26.72.72,0,0,0-.08.32.68.68,0,0,0,.07.32.73.73,0,0,0,.24.27,3.38,3.38,0,0,0,.51.26c.21.08.5.18.84.28a6.34,6.34,0,0,1,1,.34,2.37,2.37,0,0,1,.63.41,1.3,1.3,0,0,1,.35.5A1.77,1.77,0,0,1,49.25,51.6Z"/><path class="cls-1" d="M56.8,50a4.23,4.23,0,0,1-.24,1.49,2.79,2.79,0,0,1-.65,1,2.7,2.7,0,0,1-1,.63,3.59,3.59,0,0,1-1.24.21c-.2,0-.41,0-.61,0a4.62,4.62,0,0,1-.61-.11V56h-1.1V47h1L52.41,48a2.85,2.85,0,0,1,1-.92,2.57,2.57,0,0,1,1.17-.26,1.84,1.84,0,0,1,1.65.87,2.93,2.93,0,0,1,.42,1A5.85,5.85,0,0,1,56.8,50Zm-1.13.05a5.29,5.29,0,0,0-.07-.92,2.47,2.47,0,0,0-.23-.71A1.26,1.26,0,0,0,55,48a1,1,0,0,0-.59-.17,1.23,1.23,0,0,0-.42.07,1.56,1.56,0,0,0-.45.22,2.88,2.88,0,0,0-.49.41,6.4,6.4,0,0,0-.55.64v3.09a3.4,3.4,0,0,0,.64.2,3,3,0,0,0,.66.07,1.72,1.72,0,0,0,1.4-.6A2.79,2.79,0,0,0,55.67,50.09Z"/><path class="cls-1" d="M62.6,53.34l0-.85a3.47,3.47,0,0,1-1.06.74,2.84,2.84,0,0,1-1.12.23,2.76,2.76,0,0,1-.93-.14,1.69,1.69,0,0,1-.64-.39,1.44,1.44,0,0,1-.37-.57,2.09,2.09,0,0,1-.12-.72,1.77,1.77,0,0,1,.72-1.5,3.45,3.45,0,0,1,2.11-.54h1.32V49a1.17,1.17,0,0,0-.37-.91,1.59,1.59,0,0,0-1.1-.34,4.22,4.22,0,0,0-1.06.13,7.51,7.51,0,0,0-1.09.34v-1l.47-.15.54-.13a5.4,5.4,0,0,1,.6-.09q.31,0,.63,0a4.18,4.18,0,0,1,1,.12,2.2,2.2,0,0,1,.78.39,1.7,1.7,0,0,1,.5.65,2.41,2.41,0,0,1,.17.93v4.39Zm-.12-2.9H61.07a3,3,0,0,0-.71.08,1.49,1.49,0,0,0-.49.24,1,1,0,0,0-.28.36,1.28,1.28,0,0,0-.09.48,1.09,1.09,0,0,0,.06.36.68.68,0,0,0,.18.29.93.93,0,0,0,.33.21,1.46,1.46,0,0,0,.5.08,2,2,0,0,0,.87-.24,4.06,4.06,0,0,0,1-.73Z"/><path class="cls-1" d="M70.6,53.11a4.59,4.59,0,0,1-.88.24,4.9,4.9,0,0,1-.94.08,3.14,3.14,0,0,1-2.33-.82,3.25,3.25,0,0,1-.81-2.39,4,4,0,0,1,.23-1.37,3.28,3.28,0,0,1,.66-1.06,3,3,0,0,1,1-.67,3.42,3.42,0,0,1,1.3-.24,5.49,5.49,0,0,1,.93.07,3.84,3.84,0,0,1,.82.23v1a3.28,3.28,0,0,0-.84-.31,3.71,3.71,0,0,0-.88-.1,2,2,0,0,0-.81.16,2,2,0,0,0-.66.47,2.19,2.19,0,0,0-.45.74,2.78,2.78,0,0,0-.17,1,2.4,2.4,0,0,0,.56,1.73,2.11,2.11,0,0,0,1.56.58,3.72,3.72,0,0,0,.88-.11,3.44,3.44,0,0,0,.81-.3Z"/><path class="cls-1" d="M78.18,49.82c0,.16,0,.29,0,.39s0,.21,0,.3H73.68a2,2,0,0,0,.55,1.5,2.16,2.16,0,0,0,1.57.53,5.25,5.25,0,0,0,.56,0l.54-.06.5-.08c.16,0,.3-.07.44-.11v.91a7.93,7.93,0,0,1-1,.21,9,9,0,0,1-1.18.08,4,4,0,0,1-1.41-.23,2.42,2.42,0,0,1-1-.64,2.68,2.68,0,0,1-.55-1,4.58,4.58,0,0,1-.19-1.39,4.07,4.07,0,0,1,.2-1.27,3.46,3.46,0,0,1,.56-1.06,2.79,2.79,0,0,1,.91-.72,2.71,2.71,0,0,1,1.23-.26,3.32,3.32,0,0,1,1.18.2,2.42,2.42,0,0,1,.87.6,2.57,2.57,0,0,1,.53.93A4,4,0,0,1,78.18,49.82ZM77,49.66a2.46,2.46,0,0,0-.08-.78,1.58,1.58,0,0,0-.32-.6,1.43,1.43,0,0,0-.53-.4,1.83,1.83,0,0,0-.73-.14,1.45,1.45,0,0,0-.66.14,1.52,1.52,0,0,0-.52.39,2.12,2.12,0,0,0-.35.61,3.17,3.17,0,0,0-.16.78Z"/><path class="cls-1" d="M92.89,51.51H91.47v1.83H90.34V51.51h-4v-1l3.54-5.49h1.58v5.49h1.42Zm-2.55-5.4-2.89,4.43h2.89Z"/><path class="cls-1" d="M99.81,49.2a7.16,7.16,0,0,1-.19,1.73A3.78,3.78,0,0,1,99,52.28a2.67,2.67,0,0,1-1,.87,2.86,2.86,0,0,1-1.35.31,3,3,0,0,1-1.21-.25,2.53,2.53,0,0,1-.93-.77,3.8,3.8,0,0,1-.6-1.33,7.69,7.69,0,0,1-.21-1.91,7.17,7.17,0,0,1,.2-1.74,4.16,4.16,0,0,1,.57-1.35,2.79,2.79,0,0,1,1-.87,2.73,2.73,0,0,1,1.34-.31,2.94,2.94,0,0,1,1.21.25A2.42,2.42,0,0,1,99,46a3.8,3.8,0,0,1,.59,1.33A7.58,7.58,0,0,1,99.81,49.2Zm-4.91,0v.39c0,.13,0,.26,0,.38l3.51-2.59a4,4,0,0,0-.24-.59,2.07,2.07,0,0,0-.35-.46,1.45,1.45,0,0,0-.47-.3,1.36,1.36,0,0,0-.58-.11,1.53,1.53,0,0,0-.79.21,1.88,1.88,0,0,0-.6.62,3.64,3.64,0,0,0-.38,1A7.39,7.39,0,0,0,94.9,49.16Zm3.8.08c0-.15,0-.29,0-.43l0-.42L95.13,51a3.71,3.71,0,0,0,.25.61,1.57,1.57,0,0,0,.35.48,1.48,1.48,0,0,0,.47.31,1.57,1.57,0,0,0,.6.11,1.47,1.47,0,0,0,.78-.21,1.63,1.63,0,0,0,.6-.62,3.36,3.36,0,0,0,.38-1A6.53,6.53,0,0,0,98.7,49.24Z"/><path class="cls-1" d="M3.83,80.34a1,1,0,0,1,.41.09,1.11,1.11,0,0,1,.34.22A1.24,1.24,0,0,1,4.8,81a1,1,0,0,1,.08.42,1,1,0,0,1-.08.41,1.19,1.19,0,0,1-.22.33,1.36,1.36,0,0,1-.34.23,1.15,1.15,0,0,1-.41.08,1.07,1.07,0,0,1-.41-.08,1.36,1.36,0,0,1-.34-.23,1.19,1.19,0,0,1-.22-.33,1,1,0,0,1-.08-.41A1,1,0,0,1,2.86,81a1.24,1.24,0,0,1,.22-.34,1.11,1.11,0,0,1,.34-.22A.91.91,0,0,1,3.83,80.34Z"/><path class="cls-1" d="M13.61,82.25a4.89,4.89,0,0,1-.78.14,7.32,7.32,0,0,1-.81,0,2.57,2.57,0,0,1-1.79-.54,2.18,2.18,0,0,1-.59-1.67V76.9H7.85V76H9.64V74.22l1.1-.29v2h2.87v.93H10.74v3.23a1.32,1.32,0,0,0,.37,1,1.54,1.54,0,0,0,1.07.34,5.43,5.43,0,0,0,.67,0,6,6,0,0,0,.76-.15Z"/><path class="cls-1" d="M21,78.82c0,.16,0,.29,0,.39s0,.21,0,.3H16.5a2,2,0,0,0,.55,1.5,2.18,2.18,0,0,0,1.57.53,5.25,5.25,0,0,0,.56,0,4.46,4.46,0,0,0,.54-.06l.5-.08c.16,0,.3-.07.44-.11v.91a7.93,7.93,0,0,1-1,.21,9,9,0,0,1-1.18.08,4,4,0,0,1-1.41-.23,2.42,2.42,0,0,1-1-.64,2.68,2.68,0,0,1-.55-1,4.93,4.93,0,0,1-.18-1.39,4.07,4.07,0,0,1,.19-1.27,3.35,3.35,0,0,1,.56-1.06,2.79,2.79,0,0,1,.91-.72,2.71,2.71,0,0,1,1.23-.26,3.32,3.32,0,0,1,1.18.2,2.39,2.39,0,0,1,1.4,1.53A4,4,0,0,1,21,78.82Zm-1.15-.16a2.46,2.46,0,0,0-.08-.78,1.71,1.71,0,0,0-.31-.6,1.61,1.61,0,0,0-.53-.4,1.91,1.91,0,0,0-.74-.14,1.45,1.45,0,0,0-.66.14,1.52,1.52,0,0,0-.52.39,1.89,1.89,0,0,0-.34.61,2.78,2.78,0,0,0-.17.78Z"/><path class="cls-1" d="M28.51,82.34H27l-1.72-2.43-1.7,2.43H22.19l2.47-3.2L22.31,76h1.41l1.68,2.45L27,76h1.37L26,79.17Z"/><path class="cls-1" d="M35.05,82.25a4.89,4.89,0,0,1-.78.14,7.09,7.09,0,0,1-.81,0,2.57,2.57,0,0,1-1.79-.54,2.18,2.18,0,0,1-.59-1.67V76.9H29.3V76h1.78V74.22l1.11-.29v2h2.86v.93H32.19v3.23a1.36,1.36,0,0,0,.36,1,1.55,1.55,0,0,0,1.08.34,5.42,5.42,0,0,0,.66,0,5.66,5.66,0,0,0,.76-.15Z"/></svg>