<svg id="Layer_2" data-name="Layer 2" xmlns="http://www.w3.org/2000/svg" viewBox="0 0 128 96"><defs><style>.cls-1{fill:#007bff;}</style></defs><title>Artboard 1</title><path class="cls-1" d="M5.42,24.34l0-.85a3.47,3.47,0,0,1-1.06.74,2.84,2.84,0,0,1-1.12.23,2.76,2.76,0,0,1-.93-.14,1.69,1.69,0,0,1-.64-.39,1.44,1.44,0,0,1-.37-.57,2.09,2.09,0,0,1-.12-.72,1.77,1.77,0,0,1,.72-1.5A3.45,3.45,0,0,1,4,20.6H5.3V20a1.2,1.2,0,0,0-.36-.91,1.62,1.62,0,0,0-1.11-.34,4.22,4.22,0,0,0-1.06.13,7,7,0,0,0-1.08.34v-1l.46-.15L2.69,18a5.4,5.4,0,0,1,.6-.09q.31,0,.63,0A4.18,4.18,0,0,1,5,18a2.2,2.2,0,0,1,.78.39,1.7,1.7,0,0,1,.5.65,2.41,2.41,0,0,1,.17.93v4.39Zm-.12-2.9H3.89a3,3,0,0,0-.71.08,1.49,1.49,0,0,0-.49.24,1,1,0,0,0-.28.36,1.28,1.28,0,0,0-.09.48,1.09,1.09,0,0,0,.06.36.79.79,0,0,0,.18.29.93.93,0,0,0,.33.21,1.46,1.46,0,0,0,.5.08,2,2,0,0,0,.87-.24,4.06,4.06,0,0,0,1-.73Z"/><path class="cls-1" d="M8.15,21.29a4.27,4.27,0,0,1,.22-1.44A3,3,0,0,1,9,18.78a2.65,2.65,0,0,1,1-.66,3.51,3.51,0,0,1,1.28-.23,5.66,5.66,0,0,1,.6,0,5.41,5.41,0,0,1,.58.12V15.37h1.12v9h-1l0-1.2a3.25,3.25,0,0,1-1,1,2.19,2.19,0,0,1-1.16.33,1.88,1.88,0,0,1-1.66-.88,3,3,0,0,1-.41-1A5.15,5.15,0,0,1,8.15,21.29Zm1.13-.07a3.39,3.39,0,0,0,.34,1.72,1,1,0,0,0,1,.57,1.42,1.42,0,0,0,.88-.37,5.33,5.33,0,0,0,1-1.11v-3a2.64,2.64,0,0,0-.6-.2,3.66,3.66,0,0,0-.65-.06,1.77,1.77,0,0,0-1.41.58A2.8,2.8,0,0,0,9.28,21.22Z"/><path class="cls-1" d="M15.29,21.29a4.26,4.26,0,0,1,.23-1.44,2.84,2.84,0,0,1,.63-1.07,2.65,2.65,0,0,1,1-.66,3.51,3.51,0,0,1,1.28-.23c.2,0,.4,0,.6,0a5.41,5.41,0,0,1,.58.12V15.37H20.7v9h-1l0-1.2a3.13,3.13,0,0,1-1,1,2.2,2.2,0,0,1-1.17.33,2,2,0,0,1-1-.23,1.87,1.87,0,0,1-.69-.65,3.27,3.27,0,0,1-.42-1A5.67,5.67,0,0,1,15.29,21.29Zm1.13-.07a3.5,3.5,0,0,0,.34,1.72,1.07,1.07,0,0,0,1,.57,1.44,1.44,0,0,0,.88-.37,5.33,5.33,0,0,0,1-1.11v-3a2.64,2.64,0,0,0-.6-.2,3.68,3.68,0,0,0-.66-.06,1.75,1.75,0,0,0-1.4.58A2.74,2.74,0,0,0,16.42,21.22Z"/><path class="cls-1" d="M32.66,14.85h.92l-.17,1.24.66.08.62.12v1c-.23-.06-.46-.11-.7-.15s-.47-.08-.7-.1l-.36,2.72q.42.17.84.36a3.5,3.5,0,0,1,.75.46,1.88,1.88,0,0,1,.54.62,1.69,1.69,0,0,1,.21.86,2,2,0,0,1-.82,1.65,3.1,3.1,0,0,1-.93.45,5.58,5.58,0,0,1-1.2.19l-.21,1.51h-.93l.21-1.51c-.34,0-.67-.06-1-.11s-.58-.1-.81-.16V23a5.53,5.53,0,0,0,.87.23,8,8,0,0,0,1.06.12l.37-2.85c-.27-.11-.55-.22-.81-.35a3.22,3.22,0,0,1-.72-.44,2.09,2.09,0,0,1-.51-.6,1.71,1.71,0,0,1-.19-.84,1.9,1.9,0,0,1,.16-.77,2,2,0,0,1,.51-.7,2.91,2.91,0,0,1,.89-.5,3.88,3.88,0,0,1,1.27-.24ZM32.37,17a2.14,2.14,0,0,0-1.16.37,1,1,0,0,0-.36.77.92.92,0,0,0,.3.72,2.84,2.84,0,0,0,.9.52Zm.08,6.34A2.22,2.22,0,0,0,33.69,23a1.05,1.05,0,0,0,.39-.86A.91.91,0,0,0,34,21.7a1,1,0,0,0-.25-.33,1.62,1.62,0,0,0-.41-.27,3.87,3.87,0,0,0-.57-.25Z"/><path class="cls-1" d="M42.2,24.25a4.89,4.89,0,0,1-.78.14,7.32,7.32,0,0,1-.81,0,2.57,2.57,0,0,1-1.79-.54,2.18,2.18,0,0,1-.59-1.67V18.9H36.44V18h1.79V16.22l1.1-.29v2H42.2v.93H39.33v3.23a1.32,1.32,0,0,0,.37,1,1.5,1.5,0,0,0,1.07.34,5.43,5.43,0,0,0,.67-.05,6,6,0,0,0,.76-.15Z"/><path class="cls-1" d="M49.78,20.2a7.16,7.16,0,0,1-.19,1.73A4,4,0,0,1,49,23.28a2.65,2.65,0,0,1-2.31,1.18,3,3,0,0,1-1.21-.25,2.53,2.53,0,0,1-.93-.77,3.8,3.8,0,0,1-.6-1.33,8.43,8.43,0,0,1,0-3.65,4.17,4.17,0,0,1,.58-1.35,2.85,2.85,0,0,1,1-.87,2.8,2.8,0,0,1,1.35-.31,3,3,0,0,1,1.21.25A2.42,2.42,0,0,1,49,17a4,4,0,0,1,.59,1.33A7.58,7.58,0,0,1,49.78,20.2Zm-4.91,0v.39c0,.13,0,.26,0,.38l3.51-2.59a2.6,2.6,0,0,0-.24-.59,1.6,1.6,0,0,0-.35-.46,1.41,1.41,0,0,0-.46-.3,1.36,1.36,0,0,0-.58-.11,1.53,1.53,0,0,0-.79.21,1.88,1.88,0,0,0-.6.62,3.64,3.64,0,0,0-.38,1A6.67,6.67,0,0,0,44.87,20.16Zm3.79.08c0-.15,0-.29,0-.43s0-.28,0-.42L45.1,22a4.84,4.84,0,0,0,.24.61,1.78,1.78,0,0,0,.36.48,1.38,1.38,0,0,0,.47.31,1.57,1.57,0,0,0,.6.11,1.5,1.5,0,0,0,.78-.21,1.7,1.7,0,0,0,.6-.62,3.36,3.36,0,0,0,.38-1A6.57,6.57,0,0,0,48.66,20.24Z"/><path class="cls-1" d="M51.85,25.64a2.6,2.6,0,0,0,.63-.05,2.17,2.17,0,0,0,.54-.21,1.2,1.2,0,0,0,.37-.34.81.81,0,0,0,.14-.46.78.78,0,0,0-.1-.43,2.36,2.36,0,0,0-.2-.31,1.61,1.61,0,0,1-.21-.3.82.82,0,0,1-.09-.42,1,1,0,0,1,0-.28.74.74,0,0,1,.16-.27.73.73,0,0,1,.26-.19.8.8,0,0,1,.39-.08,1,1,0,0,1,.42.09,1.1,1.1,0,0,1,.37.28,1.54,1.54,0,0,1,.24.48,1.93,1.93,0,0,1,.1.67,2.67,2.67,0,0,1-.2,1,2.4,2.4,0,0,1-.57.86,2.9,2.9,0,0,1-1,.6,3.69,3.69,0,0,1-1.34.22Z"/><path class="cls-1" d="M68.39,14.85h.92l-.16,1.24.66.08.62.12v1c-.23-.06-.47-.11-.7-.15S69.26,17,69,17l-.36,2.72q.42.17.84.36a3.5,3.5,0,0,1,.75.46,2.14,2.14,0,0,1,.54.62A1.69,1.69,0,0,1,71,22a2,2,0,0,1-.82,1.65,3.1,3.1,0,0,1-.93.45,5.58,5.58,0,0,1-1.2.19l-.21,1.51h-.93l.21-1.51c-.34,0-.67-.06-1-.11s-.58-.1-.81-.16V23a5.53,5.53,0,0,0,.87.23,8,8,0,0,0,1.05.12l.38-2.85c-.28-.11-.55-.22-.82-.35a3.39,3.39,0,0,1-.71-.44,2.09,2.09,0,0,1-.51-.6,1.71,1.71,0,0,1-.2-.84,1.91,1.91,0,0,1,.17-.77,2,2,0,0,1,.51-.7,2.86,2.86,0,0,1,.88-.5,3.93,3.93,0,0,1,1.27-.24ZM68.11,17a2.14,2.14,0,0,0-1.16.37,1,1,0,0,0-.37.77.92.92,0,0,0,.3.72,3.09,3.09,0,0,0,.9.52Zm.07,6.34A2.25,2.25,0,0,0,69.43,23a1.05,1.05,0,0,0,.39-.86,1.07,1.07,0,0,0-.08-.41,1.11,1.11,0,0,0-.25-.33,1.82,1.82,0,0,0-.41-.27,3.87,3.87,0,0,0-.57-.25Z"/><path class="cls-1" d="M77.93,24.25a5,5,0,0,1-.77.14,7.32,7.32,0,0,1-.81,0,2.57,2.57,0,0,1-1.79-.54A2.14,2.14,0,0,1,74,22.22V18.9H72.18V18H74V16.22l1.1-.29v2h2.86v.93H75.07v3.23a1.32,1.32,0,0,0,.37,1,1.5,1.5,0,0,0,1.07.34,5.85,5.85,0,0,0,1.42-.2Z"/><path class="cls-1" d="M85.52,20.2a7.16,7.16,0,0,1-.19,1.73,4,4,0,0,1-.58,1.35,2.65,2.65,0,0,1-2.31,1.18,3,3,0,0,1-1.21-.25,2.48,2.48,0,0,1-.94-.77,4,4,0,0,1-.59-1.33,7.69,7.69,0,0,1-.21-1.91,7.19,7.19,0,0,1,.19-1.74,4,4,0,0,1,.58-1.35,2.85,2.85,0,0,1,1-.87,2.77,2.77,0,0,1,1.35-.31,3,3,0,0,1,1.21.25,2.47,2.47,0,0,1,.93.78,3.8,3.8,0,0,1,.6,1.33A7.58,7.58,0,0,1,85.52,20.2Zm-4.91,0v.39c0,.13,0,.26,0,.38l3.51-2.59a2.6,2.6,0,0,0-.24-.59,1.8,1.8,0,0,0-.35-.46,1.47,1.47,0,0,0-1-.41,1.5,1.5,0,0,0-.78.21,1.79,1.79,0,0,0-.6.62,3.64,3.64,0,0,0-.38,1A6.67,6.67,0,0,0,80.61,20.16Zm3.79.08c0-.15,0-.29,0-.43s0-.28,0-.42L80.84,22a3,3,0,0,0,.24.61,2,2,0,0,0,.35.48,1.6,1.6,0,0,0,.47.31,1.64,1.64,0,0,0,.6.11,1.53,1.53,0,0,0,.79-.21,1.88,1.88,0,0,0,.6-.62,3.64,3.64,0,0,0,.38-1A6.57,6.57,0,0,0,84.4,20.24Z"/><path class="cls-1" d="M87.59,25.64a2.68,2.68,0,0,0,.63-.05,2,2,0,0,0,.53-.21,1,1,0,0,0,.37-.34.74.74,0,0,0,.14-.46.89.89,0,0,0-.09-.43,2.36,2.36,0,0,0-.2-.31,1.61,1.61,0,0,1-.21-.3.82.82,0,0,1-.09-.42.9.9,0,0,1,.2-.55.77.77,0,0,1,.27-.19.79.79,0,0,1,.38-.08,1.07,1.07,0,0,1,.43.09,1,1,0,0,1,.36.28,1.37,1.37,0,0,1,.25.48,2.22,2.22,0,0,1,.09.67,2.67,2.67,0,0,1-.19,1,2.3,2.3,0,0,1-.58.86,2.71,2.71,0,0,1-1,.6,3.6,3.6,0,0,1-1.33.22Z"/><path class="cls-1" d="M104.13,14.85h.92l-.16,1.24.66.08.62.12v1c-.24-.06-.47-.11-.71-.15s-.47-.08-.7-.1l-.36,2.72c.29.11.57.23.85.36a3.5,3.5,0,0,1,.75.46,2.14,2.14,0,0,1,.54.62,1.69,1.69,0,0,1,.21.86,2,2,0,0,1-.22.95,2,2,0,0,1-.6.7,3,3,0,0,1-.94.45,5.38,5.38,0,0,1-1.2.19l-.21,1.51h-.92l.21-1.51c-.35,0-.67-.06-1-.11s-.58-.1-.81-.16V23a5,5,0,0,0,.87.23,7.8,7.8,0,0,0,1,.12l.37-2.85c-.27-.11-.54-.22-.81-.35a3.39,3.39,0,0,1-.71-.44,2.09,2.09,0,0,1-.51-.6,1.71,1.71,0,0,1-.2-.84,1.91,1.91,0,0,1,.17-.77,2,2,0,0,1,.51-.7,2.86,2.86,0,0,1,.88-.5,3.93,3.93,0,0,1,1.27-.24ZM103.84,17a2.13,2.13,0,0,0-1.15.37.94.94,0,0,0-.37.77.92.92,0,0,0,.3.72,2.84,2.84,0,0,0,.9.52Zm.08,6.34a2.25,2.25,0,0,0,1.25-.38,1.05,1.05,0,0,0,.39-.86,1.07,1.07,0,0,0-.08-.41,1.11,1.11,0,0,0-.25-.33,1.82,1.82,0,0,0-.41-.27,4,4,0,0,0-.58-.25Z"/><path class="cls-1" d="M113.67,24.25a5,5,0,0,1-.77.14,7.38,7.38,0,0,1-.82,0,2.59,2.59,0,0,1-1.79-.54,2.18,2.18,0,0,1-.59-1.67V18.9h-1.78V18h1.78V16.22l1.11-.29v2h2.86v.93h-2.86v3.23a1.36,1.36,0,0,0,.36,1,1.52,1.52,0,0,0,1.08.34,5.73,5.73,0,0,0,.67-.05,5.53,5.53,0,0,0,.75-.15Z"/><path class="cls-1" d="M121,24.34h-5.22v-1h2.14v-6l-2,1.08-.41-.94L118.17,16h1v7.3H121Z"/><path class="cls-1" d="M6.77,50a4.19,4.19,0,0,1-.22,1.42,3,3,0,0,1-.62,1.06,2.8,2.8,0,0,1-1,.67,3.58,3.58,0,0,1-1.3.23,6.6,6.6,0,0,1-1.16-.11A5.74,5.74,0,0,1,1.32,53v-8.6H2.43v2.47L2.38,48a2.75,2.75,0,0,1,1-.9,2.56,2.56,0,0,1,1.16-.26,2,2,0,0,1,1,.22,2.13,2.13,0,0,1,.69.65,2.93,2.93,0,0,1,.42,1A5.85,5.85,0,0,1,6.77,50Zm-1.13.05a5.29,5.29,0,0,0-.07-.92,2.19,2.19,0,0,0-.24-.71,1.24,1.24,0,0,0-.4-.47,1,1,0,0,0-.59-.17,1.33,1.33,0,0,0-.43.07,1.64,1.64,0,0,0-.44.22,2.88,2.88,0,0,0-.49.41,6.4,6.4,0,0,0-.55.64v3.09a3.6,3.6,0,0,0,.66.2,2.91,2.91,0,0,0,.64.07,2.24,2.24,0,0,0,.73-.12,1.51,1.51,0,0,0,.61-.4,2.06,2.06,0,0,0,.41-.75A3.53,3.53,0,0,0,5.64,50.09Z"/><path class="cls-1" d="M8.47,47h1l.05,1a4.73,4.73,0,0,1,.54-.55,2.58,2.58,0,0,1,.51-.35,2.11,2.11,0,0,1,.51-.19,2.36,2.36,0,0,1,.54,0,1.86,1.86,0,0,1,1.49.58,2.63,2.63,0,0,1,.5,1.75v4.15h-1.1V49.27a1.75,1.75,0,0,0-.28-1.1,1,1,0,0,0-.83-.36,1.34,1.34,0,0,0-.4.06,1.41,1.41,0,0,0-.4.21,3.72,3.72,0,0,0-.46.4c-.16.17-.34.38-.54.64v4.22H8.47Z"/><path class="cls-1" d="M21,49.82c0,.16,0,.29,0,.39s0,.21,0,.3H16.5a2,2,0,0,0,.55,1.5,2.18,2.18,0,0,0,1.57.53,5.25,5.25,0,0,0,.56,0,4.46,4.46,0,0,0,.54-.06l.5-.08c.16,0,.3-.07.44-.11v.91a7.93,7.93,0,0,1-1,.21,9,9,0,0,1-1.18.08,4,4,0,0,1-1.41-.23,2.42,2.42,0,0,1-1-.64,2.68,2.68,0,0,1-.55-1,4.93,4.93,0,0,1-.18-1.39,4.07,4.07,0,0,1,.19-1.27,3.46,3.46,0,0,1,.56-1.06,2.79,2.79,0,0,1,.91-.72,2.71,2.71,0,0,1,1.23-.26,3.32,3.32,0,0,1,1.18.2,2.42,2.42,0,0,1,.87.6,2.57,2.57,0,0,1,.53.93A4,4,0,0,1,21,49.82Zm-1.15-.16a2.46,2.46,0,0,0-.08-.78,1.71,1.71,0,0,0-.31-.6,1.61,1.61,0,0,0-.53-.4,1.91,1.91,0,0,0-.74-.14,1.45,1.45,0,0,0-.66.14,1.52,1.52,0,0,0-.52.39,1.89,1.89,0,0,0-.34.61,2.78,2.78,0,0,0-.17.78Z"/><path class="cls-1" d="M32.66,43.85h.92l-.17,1.24.66.08.62.12v1c-.23-.06-.46-.11-.7-.15s-.47-.08-.7-.1l-.36,2.72q.42.16.84.36a3.5,3.5,0,0,1,.75.46,1.88,1.88,0,0,1,.54.62,1.69,1.69,0,0,1,.21.86,2,2,0,0,1-.82,1.65,3.1,3.1,0,0,1-.93.45,5.58,5.58,0,0,1-1.2.19l-.21,1.51h-.93l.21-1.51c-.34,0-.67-.06-1-.11s-.58-.1-.81-.16V52a5.53,5.53,0,0,0,.87.23,8,8,0,0,0,1.06.12l.37-2.85c-.27-.11-.55-.22-.81-.35a3.22,3.22,0,0,1-.72-.44,2.09,2.09,0,0,1-.51-.6,1.71,1.71,0,0,1-.19-.84,1.9,1.9,0,0,1,.16-.77,2,2,0,0,1,.51-.7,2.91,2.91,0,0,1,.89-.5,3.88,3.88,0,0,1,1.27-.24ZM32.37,46a2.14,2.14,0,0,0-1.16.37,1,1,0,0,0-.36.77.92.92,0,0,0,.3.72,2.84,2.84,0,0,0,.9.52Zm.08,6.34A2.22,2.22,0,0,0,33.69,52a1.05,1.05,0,0,0,.39-.86A.91.91,0,0,0,34,50.7a1,1,0,0,0-.25-.33,1.94,1.94,0,0,0-.41-.27,3.87,3.87,0,0,0-.57-.25Z"/><path class="cls-1" d="M42.2,53.25a4.89,4.89,0,0,1-.78.14,7.32,7.32,0,0,1-.81,0,2.57,2.57,0,0,1-1.79-.54,2.18,2.18,0,0,1-.59-1.67V47.9H36.44V47h1.79V45.22l1.1-.29v2H42.2v.93H39.33v3.23a1.32,1.32,0,0,0,.37,1,1.54,1.54,0,0,0,1.07.34,5.43,5.43,0,0,0,.67,0,6,6,0,0,0,.76-.15Z"/><path class="cls-1" d="M49.78,49.2a7.16,7.16,0,0,1-.19,1.73A4,4,0,0,1,49,52.28a2.65,2.65,0,0,1-2.31,1.18,3,3,0,0,1-1.21-.25,2.53,2.53,0,0,1-.93-.77,3.8,3.8,0,0,1-.6-1.33,8.43,8.43,0,0,1,0-3.65,4.17,4.17,0,0,1,.58-1.35,2.85,2.85,0,0,1,1-.87,2.8,2.8,0,0,1,1.35-.31,3,3,0,0,1,1.21.25A2.42,2.42,0,0,1,49,46a4,4,0,0,1,.59,1.33A7.58,7.58,0,0,1,49.78,49.2Zm-4.91,0v.39c0,.13,0,.26,0,.38l3.51-2.59a2.6,2.6,0,0,0-.24-.59,1.6,1.6,0,0,0-.35-.46,1.41,1.41,0,0,0-.46-.3,1.36,1.36,0,0,0-.58-.11,1.53,1.53,0,0,0-.79.21,1.88,1.88,0,0,0-.6.62,3.64,3.64,0,0,0-.38,1A6.67,6.67,0,0,0,44.87,49.16Zm3.79.08c0-.15,0-.29,0-.43s0-.28,0-.42L45.1,51a4.84,4.84,0,0,0,.24.61,1.78,1.78,0,0,0,.36.48,1.38,1.38,0,0,0,.47.31,1.57,1.57,0,0,0,.6.11,1.5,1.5,0,0,0,.78-.21,1.63,1.63,0,0,0,.6-.62,3.36,3.36,0,0,0,.38-1A6.57,6.57,0,0,0,48.66,49.24Z"/><path class="cls-1" d="M51.85,54.64a2.6,2.6,0,0,0,.63,0,2.17,2.17,0,0,0,.54-.21,1.2,1.2,0,0,0,.37-.34.81.81,0,0,0,.14-.46.78.78,0,0,0-.1-.43,2.36,2.36,0,0,0-.2-.31,1.61,1.61,0,0,1-.21-.3.84.84,0,0,1-.09-.42,1,1,0,0,1,0-.28.74.74,0,0,1,.16-.27.73.73,0,0,1,.26-.19.8.8,0,0,1,.39-.08,1,1,0,0,1,.42.09,1.1,1.1,0,0,1,.37.28,1.54,1.54,0,0,1,.24.48,1.93,1.93,0,0,1,.1.67,2.67,2.67,0,0,1-.2,1,2.53,2.53,0,0,1-.57.87,3.06,3.06,0,0,1-1,.59,3.69,3.69,0,0,1-1.34.22Z"/><path class="cls-1" d="M71.22,49.2A7.16,7.16,0,0,1,71,50.93a4,4,0,0,1-.57,1.35,2.79,2.79,0,0,1-1,.87,2.86,2.86,0,0,1-1.35.31,3,3,0,0,1-1.21-.25,2.53,2.53,0,0,1-.93-.77,3.8,3.8,0,0,1-.6-1.33,7.69,7.69,0,0,1-.21-1.91,7.17,7.17,0,0,1,.2-1.74A4.16,4.16,0,0,1,66,46.11a2.79,2.79,0,0,1,1-.87,2.73,2.73,0,0,1,1.34-.31,2.94,2.94,0,0,1,1.21.25,2.42,2.42,0,0,1,.94.78A3.63,3.63,0,0,1,71,47.29,7.58,7.58,0,0,1,71.22,49.2Zm-4.91,0v.39c0,.13,0,.26,0,.38l3.51-2.59a4,4,0,0,0-.24-.59,2.07,2.07,0,0,0-.35-.46,1.45,1.45,0,0,0-.47-.3,1.36,1.36,0,0,0-.58-.11,1.53,1.53,0,0,0-.79.21,1.88,1.88,0,0,0-.6.62,3.64,3.64,0,0,0-.38,1A7.39,7.39,0,0,0,66.31,49.16Zm3.8.08c0-.15,0-.29,0-.43l0-.42L66.54,51a3.71,3.71,0,0,0,.25.61,1.57,1.57,0,0,0,.35.48,1.48,1.48,0,0,0,.47.31,1.57,1.57,0,0,0,.6.11A1.47,1.47,0,0,0,69,52.3a1.63,1.63,0,0,0,.6-.62,3.36,3.36,0,0,0,.38-1A6.53,6.53,0,0,0,70.11,49.24Z"/><path class="cls-1" d="M73.29,54.64a2.6,2.6,0,0,0,.63,0,2.17,2.17,0,0,0,.54-.21,1.1,1.1,0,0,0,.37-.34.81.81,0,0,0,.14-.46.89.89,0,0,0-.09-.43,1.69,1.69,0,0,0-.21-.31,2.28,2.28,0,0,1-.21-.3.84.84,0,0,1-.09-.42,1,1,0,0,1,0-.28.92.92,0,0,1,.16-.27.83.83,0,0,1,.26-.19.8.8,0,0,1,.39-.08,1,1,0,0,1,.79.37,1.55,1.55,0,0,1,.25.48,2.22,2.22,0,0,1,.09.67,2.87,2.87,0,0,1-.19,1,2.55,2.55,0,0,1-.58.87,3.06,3.06,0,0,1-1,.59,3.66,3.66,0,0,1-1.34.22Z"/><path class="cls-1" d="M89.26,45.28H87.38v-.91h3v8.05h1.9v.92H87.17v-.92h2.09Z"/><path class="cls-1" d="M99.79,50.11a4.26,4.26,0,0,1-.21,1.36,3.15,3.15,0,0,1-.6,1.06,2.85,2.85,0,0,1-1,.68,3.13,3.13,0,0,1-1.29.25,3.16,3.16,0,0,1-1.22-.22,2.38,2.38,0,0,1-.92-.62,2.69,2.69,0,0,1-.58-1,4.66,4.66,0,0,1-.2-1.41A4.15,4.15,0,0,1,94,48.84a3,3,0,0,1,.6-1.05,2.57,2.57,0,0,1,1-.69,3.25,3.25,0,0,1,1.28-.24,3.37,3.37,0,0,1,1.23.21,2.45,2.45,0,0,1,.92.62,2.67,2.67,0,0,1,.58,1A4.59,4.59,0,0,1,99.79,50.11Zm-1.13,0a3.49,3.49,0,0,0-.13-1,2.05,2.05,0,0,0-.37-.74,1.53,1.53,0,0,0-.59-.45,1.92,1.92,0,0,0-.77-.15A1.75,1.75,0,0,0,96,48a1.7,1.7,0,0,0-.58.52,2.14,2.14,0,0,0-.33.75,3.71,3.71,0,0,0-.1.9,3.58,3.58,0,0,0,.13,1,2.14,2.14,0,0,0,.37.74,1.5,1.5,0,0,0,.58.45,2.13,2.13,0,0,0,.78.14,1.75,1.75,0,0,0,.85-.19,1.67,1.67,0,0,0,.57-.52,2.14,2.14,0,0,0,.33-.75A3.76,3.76,0,0,0,98.66,50.16Z"/><path class="cls-1" d="M106.94,50.11a4.26,4.26,0,0,1-.21,1.36,3,3,0,0,1-.61,1.06,2.71,2.71,0,0,1-1,.68,3.13,3.13,0,0,1-1.29.25,3.21,3.21,0,0,1-1.23-.22,2.54,2.54,0,0,1-.92-.62,2.82,2.82,0,0,1-.57-1,4.37,4.37,0,0,1-.2-1.41,4.15,4.15,0,0,1,.21-1.35,3,3,0,0,1,.6-1.05,2.57,2.57,0,0,1,1-.69,3.21,3.21,0,0,1,1.28-.24,3.37,3.37,0,0,1,1.23.21,2.45,2.45,0,0,1,.92.62,2.81,2.81,0,0,1,.58,1A4.59,4.59,0,0,1,106.94,50.11Zm-1.13,0a3.85,3.85,0,0,0-.13-1,2.06,2.06,0,0,0-.38-.74,1.5,1.5,0,0,0-.58-.45,1.92,1.92,0,0,0-.77-.15,1.72,1.72,0,0,0-.85.2,1.62,1.62,0,0,0-.58.52,2.14,2.14,0,0,0-.33.75,3.71,3.71,0,0,0-.1.9,3.58,3.58,0,0,0,.13,1,2,2,0,0,0,.37.74,1.5,1.5,0,0,0,.58.45,2.13,2.13,0,0,0,.78.14,1.68,1.68,0,0,0,.84-.19,1.62,1.62,0,0,0,.58-.52,2.14,2.14,0,0,0,.33-.75A3.76,3.76,0,0,0,105.81,50.16Z"/><path class="cls-1" d="M114,50a4.23,4.23,0,0,1-.24,1.49,2.92,2.92,0,0,1-.65,1,2.7,2.7,0,0,1-1,.63,3.63,3.63,0,0,1-1.24.21c-.2,0-.41,0-.61,0a4.62,4.62,0,0,1-.61-.11V56h-1.1V47h1l.07,1.07a2.85,2.85,0,0,1,1-.92,2.57,2.57,0,0,1,1.17-.26,1.84,1.84,0,0,1,1.65.87,2.93,2.93,0,0,1,.42,1A5.85,5.85,0,0,1,114,50Zm-1.13.05a5.29,5.29,0,0,0-.07-.92,2.47,2.47,0,0,0-.23-.71,1.26,1.26,0,0,0-.41-.47,1,1,0,0,0-.59-.17,1.23,1.23,0,0,0-.42.07,1.56,1.56,0,0,0-.45.22,2.88,2.88,0,0,0-.49.41,6.4,6.4,0,0,0-.55.64v3.09a3.4,3.4,0,0,0,.64.2,3,3,0,0,0,.66.07,1.73,1.73,0,0,0,1.4-.6A2.79,2.79,0,0,0,112.85,50.09Z"/><path class="cls-1" d="M3.49,74.28H1.61v-.91h3v8h1.9v.92H1.4v-.92H3.49Z"/><path class="cls-1" d="M10.64,76.88H8.76V76h3v5.45h1.9v.92H8.55v-.92h2.09ZM11,73.3a.93.93,0,0,1,.34.06.92.92,0,0,1,.28.19.75.75,0,0,1,.18.28.74.74,0,0,1,.07.34.72.72,0,0,1-.07.33.75.75,0,0,1-.18.28.77.77,0,0,1-.28.19.86.86,0,0,1-.68,0,.77.77,0,0,1-.28-.19.75.75,0,0,1-.18-.28.72.72,0,0,1-.07-.33.74.74,0,0,1,.07-.34.75.75,0,0,1,.18-.28.92.92,0,0,1,.28-.19A.93.93,0,0,1,11,73.3Z"/><path class="cls-1" d="M25.51,72.85h.92l-.17,1.24.67.08.62.12v1c-.24-.06-.47-.11-.71-.15s-.47-.08-.7-.1l-.36,2.72c.28.11.57.23.85.36a3.76,3.76,0,0,1,.75.46,2.14,2.14,0,0,1,.54.62,1.79,1.79,0,0,1,.2.86,1.92,1.92,0,0,1-.82,1.65,3,3,0,0,1-.93.45,5.38,5.38,0,0,1-1.2.19L25,83.84H24l.2-1.51c-.34,0-.66-.06-1-.11s-.58-.1-.81-.16V81a5.38,5.38,0,0,0,.88.23,7.61,7.61,0,0,0,1.05.12l.37-2.85c-.27-.11-.54-.22-.81-.35a3.15,3.15,0,0,1-.71-.44,2.3,2.3,0,0,1-.52-.6,1.71,1.71,0,0,1-.19-.84,1.93,1.93,0,0,1,.68-1.47,2.74,2.74,0,0,1,.88-.5,3.93,3.93,0,0,1,1.27-.24ZM25.22,75a2.17,2.17,0,0,0-1.16.37,1,1,0,0,0-.36.77.92.92,0,0,0,.3.72,2.84,2.84,0,0,0,.9.52Zm.08,6.34A2.25,2.25,0,0,0,26.55,81a1.05,1.05,0,0,0,.39-.86.91.91,0,0,0-.09-.41.93.93,0,0,0-.24-.33,2.24,2.24,0,0,0-.41-.27,4.58,4.58,0,0,0-.58-.25Z"/><path class="cls-1" d="M29.32,76h1.25l1.56,4.21.34,1,.35-1L34.37,76h1.21l-2.5,6.37H31.81Z"/><path class="cls-1" d="M42.63,78.2a7.16,7.16,0,0,1-.19,1.73,4,4,0,0,1-.57,1.35,2.79,2.79,0,0,1-1,.87,2.85,2.85,0,0,1-1.34.31,3,3,0,0,1-1.22-.25,2.53,2.53,0,0,1-.93-.77,3.8,3.8,0,0,1-.6-1.33,7.69,7.69,0,0,1-.21-1.91,7.17,7.17,0,0,1,.2-1.74,4,4,0,0,1,.58-1.35,2.67,2.67,0,0,1,1-.87,2.85,2.85,0,0,1,1.34-.31,2.94,2.94,0,0,1,1.21.25,2.42,2.42,0,0,1,.94.78,3.8,3.8,0,0,1,.59,1.33A7.58,7.58,0,0,1,42.63,78.2Zm-4.91,0v.39c0,.13,0,.26,0,.38l3.51-2.59a4,4,0,0,0-.24-.59,2.07,2.07,0,0,0-.35-.46,1.45,1.45,0,0,0-.47-.3,1.36,1.36,0,0,0-.58-.11,1.53,1.53,0,0,0-.79.21,1.88,1.88,0,0,0-.6.62,3.64,3.64,0,0,0-.38,1A7.39,7.39,0,0,0,37.72,78.16Zm3.8.08c0-.15,0-.29,0-.43l0-.42L38,80a3,3,0,0,0,.24.61,1.57,1.57,0,0,0,.35.48,1.48,1.48,0,0,0,.47.31,1.57,1.57,0,0,0,.6.11,1.47,1.47,0,0,0,.78-.21,1.63,1.63,0,0,0,.6-.62,3.36,3.36,0,0,0,.38-1A6.53,6.53,0,0,0,41.52,78.24Z"/><path class="cls-1" d="M44.7,83.64a2.6,2.6,0,0,0,.63,0,2.17,2.17,0,0,0,.54-.21,1.1,1.1,0,0,0,.37-.34.81.81,0,0,0,.14-.46.89.89,0,0,0-.09-.43,1.69,1.69,0,0,0-.21-.31,2.28,2.28,0,0,1-.21-.3.84.84,0,0,1-.09-.42,1,1,0,0,1,0-.28.92.92,0,0,1,.16-.27.83.83,0,0,1,.26-.19.8.8,0,0,1,.39-.08,1.07,1.07,0,0,1,.43.09,1,1,0,0,1,.36.28,1.55,1.55,0,0,1,.25.48,2.22,2.22,0,0,1,.09.67,2.87,2.87,0,0,1-.19,1,2.55,2.55,0,0,1-.58.87,3.06,3.06,0,0,1-1,.59,3.66,3.66,0,0,1-1.34.22Z"/><path class="cls-1" d="M63.82,82.34H58.6v-1h2.14v-6l-2,1.08-.41-.94L61,74h1v7.3h1.86Z"/><path class="cls-1" d="M71.22,78.2A7.16,7.16,0,0,1,71,79.93a4,4,0,0,1-.57,1.35,2.79,2.79,0,0,1-1,.87,2.86,2.86,0,0,1-1.35.31,3,3,0,0,1-1.21-.25,2.53,2.53,0,0,1-.93-.77,3.8,3.8,0,0,1-.6-1.33,7.69,7.69,0,0,1-.21-1.91,7.17,7.17,0,0,1,.2-1.74A4.16,4.16,0,0,1,66,75.11a2.79,2.79,0,0,1,1-.87,2.85,2.85,0,0,1,1.34-.31,2.94,2.94,0,0,1,1.21.25,2.42,2.42,0,0,1,.94.78A3.63,3.63,0,0,1,71,76.29,7.58,7.58,0,0,1,71.22,78.2Zm-4.91,0v.39c0,.13,0,.26,0,.38l3.51-2.59a4,4,0,0,0-.24-.59,2.07,2.07,0,0,0-.35-.46,1.45,1.45,0,0,0-.47-.3,1.36,1.36,0,0,0-.58-.11,1.53,1.53,0,0,0-.79.21,1.88,1.88,0,0,0-.6.62,3.64,3.64,0,0,0-.38,1A7.39,7.39,0,0,0,66.31,78.16Zm3.8.08c0-.15,0-.29,0-.43l0-.42L66.54,80a3.71,3.71,0,0,0,.25.61,1.57,1.57,0,0,0,.35.48,1.48,1.48,0,0,0,.47.31,1.57,1.57,0,0,0,.6.11A1.47,1.47,0,0,0,69,81.3a1.63,1.63,0,0,0,.6-.62,3.36,3.36,0,0,0,.38-1A6.53,6.53,0,0,0,70.11,78.24Z"/><path class="cls-1" d="M78.37,78.2a7.16,7.16,0,0,1-.19,1.73,4,4,0,0,1-.58,1.35,2.65,2.65,0,0,1-2.31,1.18,3,3,0,0,1-1.21-.25,2.53,2.53,0,0,1-.93-.77,3.8,3.8,0,0,1-.6-1.33,8.43,8.43,0,0,1,0-3.65,4.17,4.17,0,0,1,.58-1.35,2.85,2.85,0,0,1,1-.87,2.92,2.92,0,0,1,1.35-.31,3,3,0,0,1,1.21.25,2.42,2.42,0,0,1,.94.78,4,4,0,0,1,.59,1.33A7.58,7.58,0,0,1,78.37,78.2Zm-4.91,0v.39c0,.13,0,.26,0,.38L77,76.34a2.6,2.6,0,0,0-.24-.59,1.6,1.6,0,0,0-.35-.46,1.41,1.41,0,0,0-.46-.3,1.36,1.36,0,0,0-.58-.11,1.53,1.53,0,0,0-.79.21,1.88,1.88,0,0,0-.6.62,3.64,3.64,0,0,0-.38,1A6.67,6.67,0,0,0,73.46,78.16Zm3.79.08c0-.15,0-.29,0-.43s0-.28,0-.42L73.69,80a4.84,4.84,0,0,0,.24.61,1.78,1.78,0,0,0,.36.48,1.38,1.38,0,0,0,.47.31,1.57,1.57,0,0,0,.6.11,1.5,1.5,0,0,0,.78-.21,1.63,1.63,0,0,0,.6-.62,3.36,3.36,0,0,0,.38-1A6.57,6.57,0,0,0,77.25,78.24Z"/></svg>