<svg id="Layer_1" data-name="Layer 1" xmlns="http://www.w3.org/2000/svg" viewBox="0 0 128 96"><defs><style>.cls-1{fill:none;stroke:#007bff;stroke-miterlimit:10;stroke-width:2px;}.cls-2{fill:#007bff;}</style></defs><title>Artboard 1</title><polyline class="cls-1" points="112 21 117 21 117 85 11 85 11 21 16 21"/><path class="cls-2" d="M49.45,10.76v2a20.22,20.22,0,0,1,3.21.21c1.79.31,6.3,2.55,9.34,4.21V76.64c-2.7-1.4-6.53-3.25-8.66-3.61a23.84,23.84,0,0,0-3.89-.27c-9.29,0-25.31,3.36-31.45,4.73V17.59c5.19-1.17,22.2-4.83,31.45-4.83v-2m0,0C38.13,10.76,16,16,16,16V80s22.13-5.24,33.45-5.24A21.6,21.6,0,0,1,53,75c3.09.53,11,5,11,5V16s-7.91-4.47-11-5a21.6,21.6,0,0,0-3.55-.24Z"/><path class="cls-2" d="M78.55,12.76c9.25,0,26.26,3.66,31.45,4.83v59.9c-6.14-1.37-22.16-4.73-31.45-4.73a23.84,23.84,0,0,0-3.89.27c-2.13.36-6,2.21-8.66,3.61V17.18c3-1.66,7.55-3.9,9.34-4.21a20.22,20.22,0,0,1,3.21-.21m0-2A21.6,21.6,0,0,0,75,11c-3.09.53-11,5-11,5V80s7.91-4.47,11-5a21.6,21.6,0,0,1,3.55-.24C89.87,74.76,112,80,112,80V16s-22.13-5.24-33.45-5.24Z"/><path class="cls-1" d="M107,28.8s-21.88-5-29-3.8c-2.38.41-8,3.8-8,3.8"/><path class="cls-1" d="M107,35.8s-21.88-5-29-3.8c-2.38.41-8,3.8-8,3.8"/><path class="cls-1" d="M107,42.8s-21.88-5-29-3.8c-2.38.41-8,3.8-8,3.8"/><path class="cls-1" d="M107,49.8s-21.88-5-29-3.8c-2.38.41-8,3.8-8,3.8"/><path class="cls-1" d="M107,56.8s-21.88-5-29-3.8c-2.38.41-8,3.8-8,3.8"/><path class="cls-1" d="M107,63.8s-21.88-5-29-3.8c-2.38.41-8,3.8-8,3.8"/><path class="cls-1" d="M21,28.8s21.88-5,29-3.8c2.38.41,8,3.8,8,3.8"/><path class="cls-1" d="M21,35.8s21.88-5,29-3.8c2.38.41,8,3.8,8,3.8"/><path class="cls-1" d="M21,42.8s21.88-5,29-3.8c2.38.41,8,3.8,8,3.8"/><path class="cls-1" d="M21,49.8s21.88-5,29-3.8c2.38.41,8,3.8,8,3.8"/><path class="cls-1" d="M21,56.8s21.88-5,29-3.8c2.38.41,8,3.8,8,3.8"/><path class="cls-1" d="M21,63.8s21.88-5,29-3.8c2.38.41,8,3.8,8,3.8"/></svg>