<svg id="Layer_1" data-name="Layer 1" xmlns="http://www.w3.org/2000/svg" viewBox="0 0 128 96"><defs><style>.cls-1{fill:#007bff;}</style></defs><title>Artboard 1</title><path class="cls-1" d="M22,11V27H2V11H22m2-2H0V29H24V9Z"/><path class="cls-1" d="M42,11V27H26V11H42m2-2H24V29H44V9Z"/><path class="cls-1" d="M62,11V27H46V11H62m2-2H44V29H64V9Z"/><path class="cls-1" d="M82,11V27H66V11H82m2-2H64V29H84V9Z"/><path class="cls-1" d="M102,11V27H86V11h16m2-2H84V29h20V9Z"/><path class="cls-1" d="M126,11V27H106V11h20m2-2H104V29h24V9Z"/><path class="cls-1" d="M22,40V56H2V40H22m2-2H0V58H24V38Z"/><path class="cls-1" d="M42,40V56H26V40H42m2-2H24V58H44V38Z"/><path class="cls-1" d="M62,40V56H46V40H62m2-2H44V58H64V38Z"/><path class="cls-1" d="M126,40V56H66V40h60m2-2H64V58h64V38Z"/><path class="cls-1" d="M22,69V85H2V69H22m2-2H0V87H24V67Z"/><path class="cls-1" d="M126,69V85H26V69H126m2-2H24V87H128V67Z"/></svg>