<svg id="Layer_1" data-name="Layer 1" xmlns="http://www.w3.org/2000/svg" viewBox="0 0 128 96"><defs><style>.cls-1{fill:#007bff;}.cls-2{fill:none;stroke:#007bff;stroke-miterlimit:10;stroke-width:2px;}</style></defs><title>Artboard 1</title><path class="cls-1" d="M78,18V78H18V18H78m2-2H16V80H80V16Z"/><path class="cls-1" d="M28,2V12H23V2h5m2-2H21V14h9V0Z"/><line class="cls-2" x1="82" y1="23" x2="94" y2="11"/><line class="cls-2" x1="82" y1="74" x2="94" y2="86"/><path class="cls-1" d="M126,2V94H98V2h28m2-2H96V96h32V0Z"/><path class="cls-1" d="M105.9,8.2a7.7,7.7,0,0,1-.19,1.73,4,4,0,0,1-.58,1.35,2.85,2.85,0,0,1-1,.87,3.07,3.07,0,0,1-2.56.06,2.48,2.48,0,0,1-.94-.77,3.63,3.63,0,0,1-.59-1.33,7.69,7.69,0,0,1-.21-1.91,7.19,7.19,0,0,1,.19-1.74,4,4,0,0,1,.58-1.35,2.67,2.67,0,0,1,1-.87A2.75,2.75,0,0,1,103,3.93a3,3,0,0,1,1.21.25,2.47,2.47,0,0,1,.93.78,3.8,3.8,0,0,1,.6,1.33A7.58,7.58,0,0,1,105.9,8.2Zm-4.92,0c0,.13,0,.26,0,.39s0,.26,0,.38l3.51-2.59a2.6,2.6,0,0,0-.24-.59,2.07,2.07,0,0,0-.35-.46,1.45,1.45,0,0,0-.47-.3,1.34,1.34,0,0,0-.58-.11,1.47,1.47,0,0,0-.78.21,1.7,1.7,0,0,0-.6.62,3.36,3.36,0,0,0-.38,1A6.63,6.63,0,0,0,101,8.16Zm3.8.08c0-.15,0-.29,0-.43l0-.42L101.22,10a3,3,0,0,0,.24.61,1.75,1.75,0,0,0,.35.48,1.6,1.6,0,0,0,.47.31,1.64,1.64,0,0,0,.6.11,1.53,1.53,0,0,0,.79-.21,1.88,1.88,0,0,0,.6-.62,3.64,3.64,0,0,0,.38-1A7.28,7.28,0,0,0,104.78,8.24Z"/><path class="cls-1" d="M113,8.2a7.16,7.16,0,0,1-.19,1.73,4,4,0,0,1-.57,1.35,2.79,2.79,0,0,1-1,.87,2.86,2.86,0,0,1-1.35.31,3,3,0,0,1-1.21-.25,2.53,2.53,0,0,1-.93-.77,3.8,3.8,0,0,1-.6-1.33A7.69,7.69,0,0,1,107,8.2a7.17,7.17,0,0,1,.2-1.74,4,4,0,0,1,.58-1.35,2.67,2.67,0,0,1,1-.87,2.73,2.73,0,0,1,1.34-.31,2.94,2.94,0,0,1,1.21.25,2.42,2.42,0,0,1,.94.78,3.63,3.63,0,0,1,.59,1.33A7.58,7.58,0,0,1,113,8.2Zm-4.91,0v.39c0,.13,0,.26,0,.38l3.51-2.59a4,4,0,0,0-.24-.59,2.07,2.07,0,0,0-.35-.46,1.45,1.45,0,0,0-.47-.3,1.36,1.36,0,0,0-.58-.11,1.47,1.47,0,0,0-.78.21,1.81,1.81,0,0,0-.61.62,3.64,3.64,0,0,0-.38,1A7.39,7.39,0,0,0,108.13,8.16Zm3.8.08c0-.15,0-.29,0-.43l0-.42L108.37,10a3,3,0,0,0,.24.61,1.57,1.57,0,0,0,.35.48,1.48,1.48,0,0,0,.47.31,1.57,1.57,0,0,0,.6.11,1.47,1.47,0,0,0,.78-.21,1.7,1.7,0,0,0,.6-.62,3.12,3.12,0,0,0,.38-1A6.53,6.53,0,0,0,111.93,8.24Z"/><path class="cls-1" d="M105.9,18.2a7.7,7.7,0,0,1-.19,1.73,4,4,0,0,1-.58,1.35,2.85,2.85,0,0,1-1,.87,3.07,3.07,0,0,1-2.56.06,2.48,2.48,0,0,1-.94-.77,3.63,3.63,0,0,1-.59-1.33,7.69,7.69,0,0,1-.21-1.91,7.19,7.19,0,0,1,.19-1.74,4,4,0,0,1,.58-1.35,2.67,2.67,0,0,1,1-.87,2.75,2.75,0,0,1,1.35-.31,3,3,0,0,1,1.21.25,2.47,2.47,0,0,1,.93.78,3.8,3.8,0,0,1,.6,1.33A7.58,7.58,0,0,1,105.9,18.2Zm-4.92,0c0,.13,0,.26,0,.39s0,.26,0,.38l3.51-2.59a2.6,2.6,0,0,0-.24-.59,2.07,2.07,0,0,0-.35-.46,1.45,1.45,0,0,0-.47-.3,1.34,1.34,0,0,0-.58-.11,1.47,1.47,0,0,0-.78.21,1.7,1.7,0,0,0-.6.62,3.36,3.36,0,0,0-.38,1A6.63,6.63,0,0,0,101,18.16Zm3.8.08c0-.15,0-.29,0-.43l0-.42L101.22,20a3,3,0,0,0,.24.61,1.75,1.75,0,0,0,.35.48,1.6,1.6,0,0,0,.47.31,1.64,1.64,0,0,0,.6.11,1.53,1.53,0,0,0,.79-.21,1.88,1.88,0,0,0,.6-.62,3.64,3.64,0,0,0,.38-1A7.28,7.28,0,0,0,104.78,18.24Z"/><path class="cls-1" d="M112.78,22.34h-5.21v-1h2.14v-6l-2,1.08-.41-.94L110,14h1v7.3h1.85Z"/><path class="cls-1" d="M105.9,28.2a7.7,7.7,0,0,1-.19,1.73,4,4,0,0,1-.58,1.35,2.85,2.85,0,0,1-1,.87,3.07,3.07,0,0,1-2.56.06,2.48,2.48,0,0,1-.94-.77,3.63,3.63,0,0,1-.59-1.33,7.69,7.69,0,0,1-.21-1.91,7.19,7.19,0,0,1,.19-1.74,4,4,0,0,1,.58-1.35,2.67,2.67,0,0,1,1-.87,2.75,2.75,0,0,1,1.35-.31,3,3,0,0,1,1.21.25,2.47,2.47,0,0,1,.93.78,3.8,3.8,0,0,1,.6,1.33A7.58,7.58,0,0,1,105.9,28.2Zm-4.92,0c0,.13,0,.26,0,.39s0,.26,0,.38l3.51-2.59a2.6,2.6,0,0,0-.24-.59,2.07,2.07,0,0,0-.35-.46,1.45,1.45,0,0,0-.47-.3,1.34,1.34,0,0,0-.58-.11,1.47,1.47,0,0,0-.78.21,1.7,1.7,0,0,0-.6.62,3.36,3.36,0,0,0-.38,1A6.63,6.63,0,0,0,101,28.16Zm3.8.08c0-.15,0-.29,0-.43l0-.42L101.22,30a3,3,0,0,0,.24.61,1.75,1.75,0,0,0,.35.48,1.6,1.6,0,0,0,.47.31,1.64,1.64,0,0,0,.6.11,1.53,1.53,0,0,0,.79-.21,1.88,1.88,0,0,0,.6-.62,3.64,3.64,0,0,0,.38-1A7.28,7.28,0,0,0,104.78,28.24Z"/><path class="cls-1" d="M112.85,32.34h-5.46v-1l2.14-2.13c.35-.35.64-.65.86-.9a4.84,4.84,0,0,0,.51-.7,1.83,1.83,0,0,0,.25-.59,2.35,2.35,0,0,0,.07-.6,1.81,1.81,0,0,0-.09-.58,1.34,1.34,0,0,0-.25-.49,1.14,1.14,0,0,0-.44-.33,1.66,1.66,0,0,0-.66-.12,2.06,2.06,0,0,0-1,.23,3.49,3.49,0,0,0-.79.61l-.61-.73a3.67,3.67,0,0,1,1.08-.79,3.23,3.23,0,0,1,1.43-.3,2.91,2.91,0,0,1,1,.17,2.3,2.3,0,0,1,.79.47,2.12,2.12,0,0,1,.51.76,3,3,0,0,1,0,1.9,3.29,3.29,0,0,1-.38.81,6.38,6.38,0,0,1-.65.84c-.26.28-.57.6-.92.94l-1.51,1.47h4Z"/><path class="cls-1" d="M105.9,38.2a7.7,7.7,0,0,1-.19,1.73,4,4,0,0,1-.58,1.35,2.85,2.85,0,0,1-1,.87,3.07,3.07,0,0,1-2.56.06,2.48,2.48,0,0,1-.94-.77,3.63,3.63,0,0,1-.59-1.33,7.69,7.69,0,0,1-.21-1.91,7.19,7.19,0,0,1,.19-1.74,4,4,0,0,1,.58-1.35,2.67,2.67,0,0,1,1-.87,2.75,2.75,0,0,1,1.35-.31,3,3,0,0,1,1.21.25,2.47,2.47,0,0,1,.93.78,3.8,3.8,0,0,1,.6,1.33A7.58,7.58,0,0,1,105.9,38.2Zm-4.92,0c0,.13,0,.26,0,.39s0,.26,0,.38l3.51-2.59a2.6,2.6,0,0,0-.24-.59,2.07,2.07,0,0,0-.35-.46,1.45,1.45,0,0,0-.47-.3,1.34,1.34,0,0,0-.58-.11,1.47,1.47,0,0,0-.78.21,1.7,1.7,0,0,0-.6.62,3.36,3.36,0,0,0-.38,1A6.63,6.63,0,0,0,101,38.16Zm3.8.08c0-.15,0-.29,0-.43l0-.42L101.22,40a3,3,0,0,0,.24.61,1.75,1.75,0,0,0,.35.48,1.6,1.6,0,0,0,.47.31,1.64,1.64,0,0,0,.6.11,1.53,1.53,0,0,0,.79-.21,1.88,1.88,0,0,0,.6-.62,3.64,3.64,0,0,0,.38-1A7.28,7.28,0,0,0,104.78,38.24Z"/><path class="cls-1" d="M112.7,39.82a2.39,2.39,0,0,1-.23,1,2.41,2.41,0,0,1-.66.84,3.56,3.56,0,0,1-1.12.56,5.28,5.28,0,0,1-1.57.21c-.33,0-.63,0-.89,0s-.51,0-.73-.09v-1a6.94,6.94,0,0,0,.83.11,8.7,8.7,0,0,0,.89,0,4.7,4.7,0,0,0,1.07-.11,2.18,2.18,0,0,0,.72-.32,1.23,1.23,0,0,0,.4-.51,1.6,1.6,0,0,0,.13-.67,1.16,1.16,0,0,0-.15-.6,1.36,1.36,0,0,0-.43-.43,2.16,2.16,0,0,0-.66-.25,3.73,3.73,0,0,0-.84-.09h-.95v-.91h1a2.38,2.38,0,0,0,.68-.09,1.51,1.51,0,0,0,.53-.29,1.17,1.17,0,0,0,.34-.45,1.66,1.66,0,0,0,.11-.61,1.12,1.12,0,0,0-.4-1,1.93,1.93,0,0,0-1.2-.31,5.19,5.19,0,0,0-.86.08,8.42,8.42,0,0,0-1,.25v-1l.46-.14.49-.1.48-.07.47,0a4.08,4.08,0,0,1,1.16.15,2.52,2.52,0,0,1,.84.4,1.75,1.75,0,0,1,.5.65,2,2,0,0,1,.17.86,1.93,1.93,0,0,1-.36,1.19,2.53,2.53,0,0,1-1,.77,2.16,2.16,0,0,1,.64.2,2,2,0,0,1,.56.39,1.81,1.81,0,0,1,.41.57A1.65,1.65,0,0,1,112.7,39.82Z"/><path class="cls-1" d="M105.71,62.34h-5.47v-1l2.15-2.13c.35-.35.63-.65.85-.9a5.94,5.94,0,0,0,.52-.7A2,2,0,0,0,104,57a2.35,2.35,0,0,0,.07-.6,2.14,2.14,0,0,0-.08-.58,1.36,1.36,0,0,0-.26-.49,1.14,1.14,0,0,0-.44-.33,1.62,1.62,0,0,0-.66-.12,2,2,0,0,0-.95.23,3.33,3.33,0,0,0-.8.61l-.61-.73a4,4,0,0,1,1.08-.79,3.23,3.23,0,0,1,1.43-.3,3,3,0,0,1,1,.17,2.36,2.36,0,0,1,.78.47,2.21,2.21,0,0,1,.51.76,3,3,0,0,1,0,1.9,3.29,3.29,0,0,1-.38.81,6.38,6.38,0,0,1-.65.84c-.26.28-.56.6-.92.94l-1.5,1.47h4Z"/><path class="cls-1" d="M112.85,60.26a2.06,2.06,0,0,1-.21.94,2.2,2.2,0,0,1-.6.69,3.11,3.11,0,0,1-.92.42,4.14,4.14,0,0,1-1.14.15,4,4,0,0,1-1.2-.16,2.56,2.56,0,0,1-.86-.42,1.73,1.73,0,0,1-.53-.65,1.86,1.86,0,0,1-.18-.82,2.07,2.07,0,0,1,.43-1.32,3.73,3.73,0,0,1,1.31-1,3.37,3.37,0,0,1-1.19-.92,1.87,1.87,0,0,1-.37-1.16,1.9,1.9,0,0,1,.16-.77,2,2,0,0,1,.5-.67,2.41,2.41,0,0,1,.84-.46,3.45,3.45,0,0,1,1.18-.18,4.18,4.18,0,0,1,1.12.14,2.32,2.32,0,0,1,.82.39,1.6,1.6,0,0,1,.49.61,2,2,0,0,1,.17.81,1.91,1.91,0,0,1-.4,1.23,3.35,3.35,0,0,1-1.15.89,5.23,5.23,0,0,1,.69.41,2.88,2.88,0,0,1,.55.49,1.89,1.89,0,0,1,.36.61A2,2,0,0,1,112.85,60.26Zm-1.2.08a1.37,1.37,0,0,0-.07-.45,1.13,1.13,0,0,0-.28-.44,2.33,2.33,0,0,0-.52-.43,5.32,5.32,0,0,0-.84-.45,5.25,5.25,0,0,0-.73.42,2.84,2.84,0,0,0-.47.42,1.34,1.34,0,0,0-.26.44,1.51,1.51,0,0,0-.08.48,1,1,0,0,0,.13.5,1,1,0,0,0,.34.38,1.71,1.71,0,0,0,.51.23,2.7,2.7,0,0,0,.65.07,2.59,2.59,0,0,0,.63-.07,1.77,1.77,0,0,0,.52-.21,1.2,1.2,0,0,0,.35-.36A1.09,1.09,0,0,0,111.65,60.34ZM111.54,56a.93.93,0,0,0-.4-.84,1.86,1.86,0,0,0-1.11-.28,1.88,1.88,0,0,0-1.11.28.93.93,0,0,0-.4.81,1.15,1.15,0,0,0,.1.46,1.08,1.08,0,0,0,.3.39,2.51,2.51,0,0,0,.49.37,6.66,6.66,0,0,0,.71.36,3.73,3.73,0,0,0,1.07-.7A1.22,1.22,0,0,0,111.54,56Z"/><path class="cls-1" d="M105.71,72.34h-5.47v-1l2.15-2.13c.35-.35.63-.65.85-.9a5.94,5.94,0,0,0,.52-.7A2,2,0,0,0,104,67a2.35,2.35,0,0,0,.07-.6,2.14,2.14,0,0,0-.08-.58,1.36,1.36,0,0,0-.26-.49,1.14,1.14,0,0,0-.44-.33,1.62,1.62,0,0,0-.66-.12,2,2,0,0,0-.95.23,3.33,3.33,0,0,0-.8.61l-.61-.73a4,4,0,0,1,1.08-.79,3.23,3.23,0,0,1,1.43-.3,3,3,0,0,1,1,.17,2.36,2.36,0,0,1,.78.47,2.21,2.21,0,0,1,.51.76,3,3,0,0,1,0,1.9,3.29,3.29,0,0,1-.38.81,6.38,6.38,0,0,1-.65.84c-.26.28-.56.6-.92.94l-1.5,1.47h4Z"/><path class="cls-1" d="M112.81,67.73a6.69,6.69,0,0,1-.29,2.08,3.59,3.59,0,0,1-.87,1.44,3.54,3.54,0,0,1-1.41.83,6.72,6.72,0,0,1-1.95.26h-.69v-1h.77a5.34,5.34,0,0,0,1.41-.17,2.69,2.69,0,0,0,1-.48,2.18,2.18,0,0,0,.61-.78,3.12,3.12,0,0,0,.26-1l0-.26a4,4,0,0,1-.92.37,4.11,4.11,0,0,1-1.13.15,3.14,3.14,0,0,1-1.11-.19,2.08,2.08,0,0,1-.79-.51,2,2,0,0,1-.47-.79,2.84,2.84,0,0,1-.16-1,2.74,2.74,0,0,1,.21-1.08,2.4,2.4,0,0,1,.59-.87,2.66,2.66,0,0,1,.9-.59,2.92,2.92,0,0,1,1.16-.22,3.25,3.25,0,0,1,1.14.2,2.34,2.34,0,0,1,.91.66,3.26,3.26,0,0,1,.59,1.18A6,6,0,0,1,112.81,67.73Zm-2.91-2.89a1.75,1.75,0,0,0-.65.12,1.46,1.46,0,0,0-.53.34,1.56,1.56,0,0,0-.34.56,2,2,0,0,0-.13.75,2.4,2.4,0,0,0,.09.69,1.26,1.26,0,0,0,.29.52,1.29,1.29,0,0,0,.5.33,2.18,2.18,0,0,0,.72.11,2.77,2.77,0,0,0,.49,0,4.37,4.37,0,0,0,.49-.12l.45-.18a3.61,3.61,0,0,0,.39-.22,6.63,6.63,0,0,0-.12-1.37,2.78,2.78,0,0,0-.35-.88,1.31,1.31,0,0,0-.56-.47A1.91,1.91,0,0,0,109.9,64.84Z"/><path class="cls-1" d="M105.55,79.82a2.54,2.54,0,0,1-.22,1,2.33,2.33,0,0,1-.67.84,3.56,3.56,0,0,1-1.12.56,5.28,5.28,0,0,1-1.57.21c-.33,0-.62,0-.89,0s-.5-.05-.73-.09v-1a6.94,6.94,0,0,0,.83.11,8.77,8.77,0,0,0,.9,0,4.67,4.67,0,0,0,1.06-.11,2.18,2.18,0,0,0,.72-.32,1.34,1.34,0,0,0,.41-.51,1.78,1.78,0,0,0,.12-.67,1.16,1.16,0,0,0-.15-.6,1.26,1.26,0,0,0-.43-.43,2,2,0,0,0-.66-.25,3.67,3.67,0,0,0-.84-.09h-1v-.91h1a2.38,2.38,0,0,0,.68-.09,1.42,1.42,0,0,0,.53-.29,1.17,1.17,0,0,0,.34-.45,1.51,1.51,0,0,0,.12-.61,1.13,1.13,0,0,0-.41-1,1.92,1.92,0,0,0-1.19-.31,5.31,5.31,0,0,0-.87.08,9,9,0,0,0-1,.25v-1l.46-.14a4.26,4.26,0,0,1,.49-.1L102,74l.46,0a4,4,0,0,1,1.16.15,2.52,2.52,0,0,1,.84.4,1.89,1.89,0,0,1,.51.65,2.16,2.16,0,0,1,.17.86,1.88,1.88,0,0,1-.37,1.19,2.46,2.46,0,0,1-1,.77,2.16,2.16,0,0,1,.64.2,2.22,2.22,0,0,1,.57.39,2,2,0,0,1,.4.57A1.51,1.51,0,0,1,105.55,79.82Z"/><path class="cls-1" d="M113,78.2a7.16,7.16,0,0,1-.19,1.73,4,4,0,0,1-.57,1.35,2.79,2.79,0,0,1-1,.87,2.86,2.86,0,0,1-1.35.31,3,3,0,0,1-1.21-.25,2.53,2.53,0,0,1-.93-.77,3.8,3.8,0,0,1-.6-1.33A7.69,7.69,0,0,1,107,78.2a7.17,7.17,0,0,1,.2-1.74,4,4,0,0,1,.58-1.35,2.67,2.67,0,0,1,1-.87,2.85,2.85,0,0,1,1.34-.31,2.94,2.94,0,0,1,1.21.25,2.42,2.42,0,0,1,.94.78,3.63,3.63,0,0,1,.59,1.33A7.58,7.58,0,0,1,113,78.2Zm-4.91,0v.39c0,.13,0,.26,0,.38l3.51-2.59a4,4,0,0,0-.24-.59,2.07,2.07,0,0,0-.35-.46,1.45,1.45,0,0,0-.47-.3,1.36,1.36,0,0,0-.58-.11,1.47,1.47,0,0,0-.78.21,1.81,1.81,0,0,0-.61.62,3.64,3.64,0,0,0-.38,1A7.39,7.39,0,0,0,108.13,78.16Zm3.8.08c0-.15,0-.29,0-.43l0-.42L108.37,80a3,3,0,0,0,.24.61,1.57,1.57,0,0,0,.35.48,1.48,1.48,0,0,0,.47.31,1.57,1.57,0,0,0,.6.11,1.47,1.47,0,0,0,.78-.21,1.63,1.63,0,0,0,.6-.62,3.12,3.12,0,0,0,.38-1A6.53,6.53,0,0,0,111.93,78.24Z"/><path class="cls-1" d="M105.55,89.82a2.54,2.54,0,0,1-.22,1,2.33,2.33,0,0,1-.67.84,3.56,3.56,0,0,1-1.12.56,5.28,5.28,0,0,1-1.57.21c-.33,0-.62,0-.89,0s-.5-.05-.73-.09v-1a6.94,6.94,0,0,0,.83.11,8.77,8.77,0,0,0,.9,0,4.67,4.67,0,0,0,1.06-.11,2.18,2.18,0,0,0,.72-.32,1.34,1.34,0,0,0,.41-.51,1.78,1.78,0,0,0,.12-.67,1.16,1.16,0,0,0-.15-.6,1.26,1.26,0,0,0-.43-.43,2,2,0,0,0-.66-.25,3.67,3.67,0,0,0-.84-.09h-1v-.91h1a2.38,2.38,0,0,0,.68-.09,1.42,1.42,0,0,0,.53-.29,1.17,1.17,0,0,0,.34-.45,1.51,1.51,0,0,0,.12-.61,1.13,1.13,0,0,0-.41-1,1.92,1.92,0,0,0-1.19-.31,5.31,5.31,0,0,0-.87.08,9,9,0,0,0-1,.25v-1l.46-.14a4.26,4.26,0,0,1,.49-.1L102,84l.46,0a4,4,0,0,1,1.16.15,2.52,2.52,0,0,1,.84.4,1.89,1.89,0,0,1,.51.65,2.16,2.16,0,0,1,.17.86,1.88,1.88,0,0,1-.37,1.19,2.46,2.46,0,0,1-1,.77,2.16,2.16,0,0,1,.64.2,2.22,2.22,0,0,1,.57.39,2,2,0,0,1,.4.57A1.51,1.51,0,0,1,105.55,89.82Z"/><path class="cls-1" d="M112.78,92.34h-5.21v-1h2.14v-6l-2,1.08-.41-.94L110,84h1v7.3h1.85Z"/><path class="cls-1" d="M102.88,46.82a1.86,1.86,0,0,1,.75.15,1.89,1.89,0,0,1,.62.42,2.21,2.21,0,0,1,.42.61,2,2,0,0,1,0,1.51,2.21,2.21,0,0,1-.42.61,1.89,1.89,0,0,1-.62.42,1.86,1.86,0,0,1-.75.15,1.91,1.91,0,0,1-1.37-.57,2,2,0,0,1-.41-.61,2,2,0,0,1,0-1.51,2,2,0,0,1,.41-.61,1.91,1.91,0,0,1,1.37-.57Z"/><path class="cls-1" d="M110,46.82a1.91,1.91,0,0,1,1.37.57,2,2,0,0,1,.41.61,2,2,0,0,1,0,1.51,2,2,0,0,1-.41.61,1.91,1.91,0,0,1-1.37.57,1.86,1.86,0,0,1-.75-.15,1.89,1.89,0,0,1-.62-.42,2,2,0,0,1-.41-.61,1.86,1.86,0,0,1,0-1.51,2,2,0,0,1,.41-.61,1.89,1.89,0,0,1,.62-.42A1.86,1.86,0,0,1,110,46.82Z"/><path class="cls-1" d="M117.18,46.82a1.93,1.93,0,0,1,.75.15,2,2,0,0,1,1,1,2,2,0,0,1,0,1.51,2,2,0,0,1-1,1,2,2,0,0,1-1.51,0,2,2,0,0,1-1-1,2,2,0,0,1,0-1.51,2,2,0,0,1,1-1A1.94,1.94,0,0,1,117.18,46.82Z"/><circle class="cls-2" cx="27" cy="27" r="6"/><path class="cls-1" d="M43,2V12H38V2h5m2-2H36V14h9V0Z"/><path class="cls-1" d="M58,2V12H53V2h5m2-2H51V14h9V0Z"/><path class="cls-1" d="M73,2V12H68V2h5m2-2H66V14h9V0Z"/><path class="cls-1" d="M28,84V94H23V84h5m2-2H21V96h9V82Z"/><path class="cls-1" d="M43,84V94H38V84h5m2-2H36V96h9V82Z"/><path class="cls-1" d="M58,84V94H53V84h5m2-2H51V96h9V82Z"/><path class="cls-1" d="M73,84V94H68V84h5m2-2H66V96h9V82Z"/><path class="cls-1" d="M12,23v5H2V23H12m2-2H0v9H14V21Z"/><path class="cls-1" d="M12,38v5H2V38H12m2-2H0v9H14V36Z"/><path class="cls-1" d="M12,53v5H2V53H12m2-2H0v9H14V51Z"/><path class="cls-1" d="M12,68v5H2V68H12m2-2H0v9H14V66Z"/><circle class="cls-2" cx="69" cy="69" r="6"/></svg>