<svg id="Layer_1" data-name="Layer 1" xmlns="http://www.w3.org/2000/svg" viewBox="0 0 128 96"><defs><style>.cls-1{fill:#007bff;}.cls-2{fill:none;stroke:#007bff;stroke-miterlimit:10;stroke-width:2px;}</style></defs><title>Artboard 1</title><path class="cls-1" d="M78,18V78H18V18H78m2-2H16V80H80V16Z"/><path class="cls-1" d="M28,2V12H23V2h5m2-2H21V14h9V0Z"/><line class="cls-2" x1="82" y1="23" x2="94" y2="11"/><line class="cls-2" x1="82" y1="74" x2="94" y2="86"/><path class="cls-1" d="M126,2V94H98V2h28m2-2H96V96h32V0Z"/><path class="cls-1" d="M100.63,6l.69-.71,4.27,3.56-4.27,3.56-.69-.69,3.46-2.85Z"/><circle class="cls-2" cx="27" cy="27" r="6"/><path class="cls-1" d="M43,2V12H38V2h5m2-2H36V14h9V0Z"/><path class="cls-1" d="M58,2V12H53V2h5m2-2H51V14h9V0Z"/><path class="cls-1" d="M73,2V12H68V2h5m2-2H66V14h9V0Z"/><path class="cls-1" d="M28,84V94H23V84h5m2-2H21V96h9V82Z"/><path class="cls-1" d="M43,84V94H38V84h5m2-2H36V96h9V82Z"/><path class="cls-1" d="M58,84V94H53V84h5m2-2H51V96h9V82Z"/><path class="cls-1" d="M73,84V94H68V84h5m2-2H66V96h9V82Z"/><path class="cls-1" d="M12,23v5H2V23H12m2-2H0v9H14V21Z"/><path class="cls-1" d="M12,38v5H2V38H12m2-2H0v9H14V36Z"/><path class="cls-1" d="M12,53v5H2V53H12m2-2H0v9H14V51Z"/><path class="cls-1" d="M12,68v5H2V68H12m2-2H0v9H14V66Z"/><circle class="cls-2" cx="69" cy="69" r="6"/></svg>