<?xml version="1.0" encoding="utf-8"?>
<!-- Generator: Adobe Illustrator 23.0.1, SVG Export Plug-In . SVG Version: 6.00 Build 0)  -->
<svg version="1.1" id="Layer_1" xmlns="http://www.w3.org/2000/svg" xmlns:xlink="http://www.w3.org/1999/xlink" x="0px" y="0px"
	 viewBox="0 0 96 96" style="enable-background:new 0 0 96 96;" xml:space="preserve">
<style type="text/css">
	.st0{fill:#212529;}
	.st1{fill:none;stroke:#212529;stroke-width:2;stroke-miterlimit:10;}
</style>
<g>
	<path class="st0" d="M78,18v60H18V18H78 M80,16H16v64h64V16L80,16z"/>
</g>
<g>
	<path class="st0" d="M28,2v10h-5V2H28 M30,0h-9v14h9V0L30,0z"/>
</g>
<circle class="st1" cx="27" cy="27" r="6"/>
<g>
	<path class="st0" d="M43,2v10h-5V2H43 M45,0h-9v14h9V0L45,0z"/>
</g>
<g>
	<path class="st0" d="M58,2v10h-5V2H58 M60,0h-9v14h9V0L60,0z"/>
</g>
<g>
	<path class="st0" d="M73,2v10h-5V2H73 M75,0h-9v14h9V0L75,0z"/>
</g>
<g>
	<path class="st0" d="M28,84v10h-5V84H28 M30,82h-9v14h9V82L30,82z"/>
</g>
<g>
	<path class="st0" d="M43,84v10h-5V84H43 M45,82h-9v14h9V82L45,82z"/>
</g>
<g>
	<path class="st0" d="M58,84v10h-5V84H58 M60,82h-9v14h9V82L60,82z"/>
</g>
<g>
	<path class="st0" d="M73,84v10h-5V84H73 M75,82h-9v14h9V82L75,82z"/>
</g>
<g>
	<path class="st0" d="M12,23v5H2v-5H12 M14,21H0v9h14V21L14,21z"/>
</g>
<g>
	<path class="st0" d="M12,38v5H2v-5H12 M14,36H0v9h14V36L14,36z"/>
</g>
<g>
	<path class="st0" d="M12,53v5H2v-5H12 M14,51H0v9h14V51L14,51z"/>
</g>
<g>
	<path class="st0" d="M12,68v5H2v-5H12 M14,66H0v9h14V66L14,66z"/>
</g>
<circle class="st1" cx="69" cy="69" r="6"/>
<g>
	<path class="st0" d="M94,23v5H84v-5H94 M96,21H82v9h14V21L96,21z"/>
</g>
<g>
	<path class="st0" d="M94,38v5H84v-5H94 M96,36H82v9h14V36L96,36z"/>
</g>
<g>
	<path class="st0" d="M94,53v5H84v-5H94 M96,51H82v9h14V51L96,51z"/>
</g>
<g>
	<path class="st0" d="M94,68v5H84v-5H94 M96,66H82v9h14V66L96,66z"/>
</g>
</svg>
